<?xml version="1.0" encoding="UTF-8" standalone="no"?>
<svg
   width="250"
   height="262.76608"
   viewBox="0 0 457.79497 481.17196"
   version="1.1"
   id="svg1"
   xmlns="http://www.w3.org/2000/svg"
   xmlns:svg="http://www.w3.org/2000/svg">
  <defs
     id="defs1" />
  <path
     fill="#ffffff"
     d="m 421.2985,448.48778 c -2.02999,0.35154 -4.09116,0.52427 -6.13025,0.52427 -17.61192,0 -32.55139,-12.6194 -35.52646,-30.00664 -2.78762,-16.31271 5.88348,-31.97645 20.16576,-38.72579 1.17757,-0.55371 2.39366,-1.05201 3.64092,-1.48061 1.82219,-0.62731 3.71885,-1.11696 5.67958,-1.45031 2.02653,-0.34591 4.08639,-0.52341 6.13024,-0.52341 17.60717,0 32.54749,12.61854 35.52214,30.00577 3.35563,19.61638 -9.87031,38.30154 -29.48193,41.65672 z"
     id="path1"
     style="stroke-width:0.432927" />
  <path
     fill="#e60017"
     d="m 386.03656,310.59604 c -1.83085,13.48569 -4.67562,26.87614 -9.22136,39.72542 -8.33386,23.55992 -20.91083,45.74746 -37.54391,64.44517 -15.36415,17.76777 -34.21036,32.32669 -54.74367,43.6564 -13.26057,6.99178 -27.26967,12.60295 -41.78184,16.36985 -2.81879,0.58013 -5.58866,1.3555 -8.36372,2.10836 -9.88374,2.04732 -19.919,3.23787 -29.96768,4.11757 -14.58922,0.37146 -29.31352,0.27231 -43.65641,-2.68458 -8.78409,-1.47628 -17.34394,-3.9825 -25.89772,-6.41165 -15.60227,-5.11677 -30.6465,-12.04361 -44.439149,-20.9801 -8.61525,-5.16829 -16.45124,-11.49466 -24.16211,-17.90155 -10.204101,-9.10014 -19.802104,-18.96699 -27.833343,-30.06162 -2.285424,-3.3855 -4.89208,-6.53851 -7.022083,-10.0266 -2.788053,-4.54141 -5.745381,-8.98802 -8.165013,-13.74545 -5.221105,-9.98418 -9.788058,-20.33547 -13.3597099,-31.02792 -0.917373,-2.92788 -1.7226185,-5.88911 -2.739998,-8.77587 -3.7270728,-13.85801 -6.33372924,-28.07102 -7.00866322,-42.4178 -0.10823188,-8.97113 -0.40651893,-17.98424 0.55025083,-26.91553 0.1082319,-1.88758 0.00433,-3.79332 0.36798839,-5.65794 0.991404,-6.09129 1.6624417,-12.25704 3.0737852,-18.26564 3.4032433,-15.61483 8.6325747,-30.85431 15.7897317,-45.15001 0.04675,-0.0952 0.09091,-0.18616 0.138104,-0.28054 1.082318,-2.20879 2.208363,-4.39854 3.372072,-6.56837 4.861776,-2.03866 12.195567,-4.31153 23.144737,-6.22507 13.3346,-2.32958 29.763766,-3.70629 48.955441,-4.13489 -1.00439,0.95721 -2.004885,1.9222 -3.017935,2.87074 -0.52817,0.52341 -1.052015,1.05591 -1.566765,1.58885 -13.637215,13.99654 -24.19242,30.94999 -30.846086,49.31434 -10.931419,29.28754 -11.47734,62.19436 -2.01744,91.9499 3.817985,11.07385 8.407451,21.95419 14.650266,31.89376 4.49855,7.52905 10.07812,14.32558 15.801855,20.94547 19.309004,21.08314 45.041344,36.38713 73.021884,42.53513 4.84402,1.30744 9.86165,1.70487 14.79789,2.5586 9.32093,1.02084 18.7371,1.01305 28.08834,0.34591 4.71025,-0.16408 9.33824,-1.19488 13.97922,-1.93908 6.29477,-0.96932 12.34277,-2.98677 18.41674,-4.84446 15.69839,-5.15617 30.42225,-13.16099 43.43129,-23.34345 12.4419,-10.1608 23.69369,-22.00138 32.11456,-35.74682 4.19464,-6.08653 7.1433,-12.89648 10.29935,-19.55101 2.36811,-5.87006 4.71847,-11.77519 6.17354,-17.95307 2.97854,-9.38976 4.32494,-19.18388 5.10422,-28.97151 0.72775,-14.91911 0.14719,-30.10188 -4.07818,-44.51793 -2.1733,-9.11356 -5.35964,-17.94918 -9.36422,-26.40035 -0.9005,-1.90056 -1.84427,-3.78292 -2.82702,-5.64495 20.33504,7.39008 42.54422,16.57204 65.13394,27.84547 v -0.005 c -11.02666,-20.68138 -21.32168,-40.19256 -25.61632,-48.89483 -0.0645,-0.11689 -6.74934,-13.23027 -19.34666,-27.742 0.77926,0.22556 1.55854,0.46324 2.33694,0.69702 1.35073,0.21213 2.7361,0.30305 4.11281,0.24244 10.87947,13.30039 16.50753,24.34784 16.77162,24.87211 3.23397,6.55496 9.88805,19.27004 17.7024,33.99737 1.2122,4.04354 2.32915,8.11739 3.43354,12.18734 0.65373,3.10409 1.26415,6.22073 1.8274,9.34257 1.45853,8.06501 2.59756,16.18673 3.2292,24.35218 0.74161,11.61414 0.0276,23.27245 -1.23211,34.82295 z"
     id="path2"
     style="stroke-width:0.432927" />
  <path
     fill="#e60017"
     d="m 293.95288,210.74564 c -0.0472,0.0295 -0.0991,0.0563 -0.14719,0.0866 -1.52781,0.97842 -3.0608,1.9603 -4.58947,2.94391 -11.29075,7.25586 -22.55595,14.56714 -33.98004,21.61607 0.25975,1.81829 1.41956,3.30323 2.26377,4.88775 3.08288,5.4328 5.2644,11.32581 7.0827,17.28246 2.43262,8.0741 2.53306,16.58069 2.13822,24.9323 -0.91737,8.23818 -3.11664,16.3166 -6.26446,23.98072 -3.93098,8.73994 -8.84903,17.04392 -14.7243,24.62448 -4.69769,5.44623 -9.20879,11.13533 -14.80611,15.7157 -4.92196,4.67519 -10.25173,8.92653 -16.01832,12.5116 -9.04429,6.09563 -18.69381,11.41111 -29.00138,15.05636 -0.78793,0.31604 -1.54166,0.71087 -2.27287,1.14379 4.43751,0.0346 8.72739,-1.29878 13.0177,-2.26854 14.72386,-3.46774 28.68577,-9.97508 41.08482,-18.61155 8.08708,-6.15666 15.76288,-13.0177 21.74162,-21.30003 5.00031,-6.16402 8.74946,-13.22117 12.02282,-20.42162 5.92289,-13.88789 9.26898,-29.00052 8.77934,-44.13177 15.23905,0.1775 30.48243,0.10823 45.73057,0.15153 -0.0736,-4.38513 -1.06977,-8.68756 -2.00057,-12.94886 -2.92225,-12.14319 -7.26019,-24.03571 -13.2558,-35.00609 -1.06024,-1.94817 -2.17719,-3.86994 -3.35042,-5.75317 z"
     id="path3"
     style="stroke-width:0.432927" />
  <path
     fill="#e60017"
     d="m 287.29879,275.92548 c 13.19519,0 26.38563,-0.0303 39.58212,0.0152 0.17101,5.97483 0.11776,11.95876 0.0511,17.94268 -0.59614,18.32582 -6.16532,36.14945 -13.83766,52.68857 -2.08152,-0.56886 -3.74266,-2.00315 -5.53368,-3.12097 -4.92845,-3.37597 -10.01145,-6.51253 -14.94509,-9.87768 -1.95727,-1.13816 -3.73227,-2.70666 -5.92158,-3.36947 -0.17144,0.0364 -0.51389,0.11429 -0.68879,0.15542 -2.71749,4.67432 -5.2341,9.50406 -8.56244,13.79523 -2.0655,2.88287 -4.42711,5.52892 -6.67834,8.27152 -4.30676,5.3432 -9.46293,9.90322 -14.56195,14.4693 -2.9924,2.59323 -6.25884,4.86611 -9.57203,7.02988 -23.71447,16.07416 -53.53278,22.76679 -81.84927,18.57865 -6.05622,-1.19964 -12.08863,-2.58804 -18.04702,-4.21931 -9.57159,-3.22921 -19.01331,-7.0394 -27.75238,-12.15314 -0.66714,-0.38834 -1.25722,-0.89573 -1.80661,-1.42996 2.29365,0.13551 4.35872,1.2005 6.50257,1.92133 7.91478,2.39712 15.99061,4.34226 24.21667,5.33064 3.95609,0.8598 8.01825,0.51388 11.99988,1.15418 5.00594,0.15109 10.01751,0.15109 15.02216,-0.0355 2.79065,-0.5286 5.64277,-0.27967 8.44944,-0.62515 6.03544,-0.94334 12.00941,-2.27286 17.95264,-3.69071 6.82337,-2.0867 13.7238,-4.09505 20.12204,-7.29958 8.64945,-3.79505 16.85992,-8.59708 24.22792,-14.53035 4.75224,-3.48377 8.95554,-7.6403 12.92115,-11.98386 6.6108,-6.95325 11.8752,-15.07064 16.37895,-23.5136 7.45458,-13.99265 11.50201,-29.70922 12.33021,-45.50327 z"
     id="path4"
     style="stroke-width:0.432927" />
  <path
     fill="#e60017"
     d="m 284.74668,345.76967 c 1.33082,-1.91008 2.38716,-4.02146 3.9708,-5.75058 6.96798,4.17689 13.73853,8.68626 20.64546,12.96229 -1.02994,2.70232 -2.71229,5.09858 -4.19377,7.56367 -3.976,5.29558 -7.73901,10.76128 -12.28389,15.59622 -16.58155,18.4808 -38.25607,32.43233 -62.09565,39.47346 -9.38544,2.99759 -19.17956,4.45698 -28.96329,5.35228 -6.20688,0.14979 -12.41939,0.16581 -18.6254,-0.005 -14.6598,-1.24207 -29.23776,-4.45179 -42.76458,-10.33917 -16.75733,-7.14331 -31.99681,-17.79246 -44.514474,-31.01796 -3.7011,-3.75868 -7.236815,-7.71303 -10.213195,-12.07218 -4.21368,-5.5813 -8.002665,-11.48167 -11.38426,-17.60024 -0.68316,-1.35116 -1.54252,-2.66596 -1.75509,-4.18814 1.542525,0.73468 2.281965,2.37115 3.472945,3.52013 3.525765,3.55131 6.67834,7.46454 10.31147,10.918 7.53164,7.05629 15.478024,13.74978 24.294164,19.16397 4.82541,2.6361 9.49842,5.56529 14.47449,7.92691 10.2448,4.7886 20.91906,8.83042 32.04876,10.98985 8.23082,1.57933 16.58675,2.75473 24.98814,2.54778 29.30097,0.23249 58.24867,-11.13012 80.431,-30.11746 3.19371,-2.83827 6.38828,-5.6904 9.23521,-8.8841 4.69034,-5.02759 9.24604,-10.21017 12.92116,-16.03953 z"
     id="path5"
     style="stroke-width:0.432927" />
  <path
     fill="#ffffff"
     d="m 382.81515,246.71716 v 0.005 C 360.22499,235.4481 338.01624,226.26614 317.6812,218.8765 c -22.26113,-8.09142 -42.27494,-14.03595 -58.06856,-18.21759 -33.42633,-8.84904 -55.75197,-11.95746 -55.97753,-11.98776 l -0.0909,-0.013 c -41.76885,-3.90847 -78.21701,-5.53672 -108.024504,-4.87044 -19.191675,0.4286 -35.621276,1.80531 -48.955443,4.13532 -10.94917,1.91354 -18.282096,4.18641 -23.144737,6.22507 -3.670792,1.54165 -5.935003,2.95689 -7.280975,3.98336 -4.900739,-4.68081 -7.4117184,-9.33824 -7.4636694,-13.86277 -0.064507,-5.58909 3.7790234,-9.19062 3.8179864,-9.22569 13.69826,-12.44233 10.429658,-33.22285 10.109291,-35.05846 -0.705672,-7.55416 0.917806,-13.66752 4.826708,-18.16997 4.204159,-4.84446 10.238303,-6.88355 14.169284,-7.73209 l -0.01688,0.0303 4.194634,-0.64073 c 21.368436,-3.2686 44.219651,-4.92195 67.913345,-4.92195 88.32153,0 162.59415,23.00966 163.33444,23.24344 l 0.22556,0.0563 c 26.71163,5.338 46.99861,22.94084 59.31106,36.76421 0.43726,0.48921 0.86586,0.97885 1.2897,1.46805 12.59863,14.51217 19.28259,27.62554 19.34709,27.74157 4.29638,8.70097 14.59225,28.21258 25.61806,48.89353 z"
     id="path6"
     style="stroke-width:0.432927" />
  <g
     id="g8"
     transform="matrix(0.4329275,0,0,0.4329275,-637.82401,-364.64661)">
    <g
       id="g7">
      <path
         fill="#e60017"
         d="m 2516.609,1446.422 c -0.271,7.98 -1.121,29.031 -3.32,57.221 -1.5,19.33 -3.63,42.021 -6.641,66.16 -5.899,47.312 -15.159,100.16 -29.619,144.18 -13.28,-7.229 -28.5,-11.288 -44.561,-11.288 -5.28,0 -10.61,0.459 -15.852,1.35 -2.72,0.459 -5.39,1.039 -8.01,1.729 14.41,-52.86 12.641,-109.602 8.21,-149.61 -1.938,-17.601 -4.52,-33.439 -7.01,-46.449 -4.3,-22.461 -14.498,-37.493 -14.558,-37.714 -17.221,-32.069 -30.224,-66.936 -47.053,-98.706 -18.051,-34.021 -33.42,-63.39 -40.891,-78.529 -0.609,-1.211 -13.609,-26.729 -38.74,-57.451 -3.209,-3.93 -6.619,-7.938 -10.229,-12 -29.45,-33.118 -78.051,-75.278 -142.431,-88.229 -3.729,-1.159 -46.45,-14.181 -111.96,-27.021 -62.979,-12.34 -160.609,-27.049 -268.061,-27.049 -51.24,0 -100.8,3.319 -147.5,9.891 5.659,-8.021 16.061,-21.229 33.42,-38.521 27.399,-27.279 78.21,-70.56 164.67,-121.85 l 0.311,-0.181 0.291,-0.229 c 0.229,-0.189 23.969,-19.24 60.909,-38.021 33.939,-17.25 86.3,-37.819 143.04,-37.819 22.221,0 43.82,3.141 64.189,9.34 l 0.649,0.16 c 0.229,0.028 23.312,4.02 64.431,25.569 37.989,19.91 100.854,56.095 178.453,130.646 l 1.667,-0.167 0.333,1.25 c 1.5,0.99 152.384,98.526 163.665,174.167 v 2.75 2.002 c 5.443,-1.379 18.101,38.752 34.571,101.372 9.438,35.837 18.068,84.797 17.627,143.047 z"
         id="path7" />
    </g>
  </g>
  <path
     d="m 440.38628,379.06655 c 9.3902,-28.7204 13.80173,-65.6015 15.85381,-91.66373 1.00438,-9.04775 1.52823,-18.20893 1.5542,-27.26145 0.009,-3.84439 -0.0736,-7.70178 -0.23811,-11.4769 -0.76628,-17.20454 -3.33354,-34.22725 -7.63684,-50.59191 -1.07799,-4.08684 -2.25122,-8.1044 -3.48507,-11.93148 -1.00872,-3.18635 -2.09104,-6.44197 -3.22531,-9.6716 -0.87494,-2.90495 -8.53776,-27.53852 -21.65935,-46.1544 -1.77934,-2.78373 -3.0002,-4.45483 -3.45477,-5.06093 l -0.2117,-0.26408 c -6.03934,-7.58922 -13.95325,-15.74558 -23.51662,-24.24394 -5.37263,-4.770864 -11.23014,-9.610994 -17.41235,-14.386184 -4.67129,-3.60369 -8.68928,-6.564915 -11.5847,-8.65119 v 0 l -11.37561,-9.6006 4.3e-4,0.001 c -3.71538,-3.39763 -7.43986,-6.689611 -11.0942,-9.867301 C 316.56512,35.34853 295.58113,22.477596 282.61061,15.706609 265.55717,6.8099496 255.55697,4.627995 253.47416,4.2426894 244.14933,1.4286608 234.28292,0 224.14766,0 198.34084,0 174.68136,9.2906241 159.37737,17.08332 143.9132,24.953941 133.77837,32.802916 132.26745,33.997797 94.221781,56.587955 71.835096,75.727681 59.74776,87.806356 49.907319,97.642471 45.045544,104.56498 43.097369,107.65175 c -4.467812,0.6061 -13.749777,2.72745 -20.222043,10.15648 -5.069581,5.82721 -7.190926,13.51167 -6.299095,22.83693 l 0.0433,0.32036 c 0.134207,0.77927 3.203663,19.23064 -8.1866594,29.57761 -0.24244,0.21214 -5.8748263,5.37696 -5.8185457,13.69783 0.043292,6.75367 3.7145181,13.39044 10.9141021,19.71984 l 3.22098,3.08245 2.424395,-3.54568 c 0.181829,-0.16884 0.722989,-0.64506 1.79232,-1.3161 3.1647,-1.9828 11.069955,-5.73628 28.464983,-8.59794 11.472574,-1.88756 25.451805,-3.10409 41.56104,-3.60628 5.753605,-0.18183 11.857884,-0.27707 18.135324,-0.27707 26.8848,0 58.43223,1.67975 93.76344,4.98299 2.52397,0.36366 23.78505,3.5197 55.25021,11.85788 20.71601,5.48519 41.49654,12.08301 61.76576,19.60296 21.98753,8.16545 43.11569,17.34914 62.79614,27.29781 0.76238,0.43942 2.83697,1.95034 5.06741,6.28307 0.37665,0.72992 0.79226,1.54426 1.19316,2.33045 0.71,1.38104 1.35938,2.64952 1.61048,3.14306 l 0.0519,0.1039 c 0.0346,0.0736 0.0563,0.11256 0.0563,0.11256 2.38111,5.08257 6.62812,14.87972 8.69751,24.19675 v 0.009 c 0.25976,1.32043 0.51086,2.67117 0.75331,4.00458 l 0.0125,0.0866 c 0.005,0.0433 0.013,0.0909 0.0221,0.13421 l 0.0688,0.37664 c 0.91347,5.18258 1.66287,10.4249 2.22958,15.58539 1.87024,16.94911 2.68414,41.79958 -3.93964,64.40273 -8.40745,3.62793 -15.49924,10.00885 -20.032,18.04441 -4.74055,8.40312 -6.45493,18.26479 -4.8267,27.76797 3.47597,20.30864 20.92772,35.04982 41.5,35.04982 2.39409,0 4.79683,-0.20348 7.14762,-0.61043 11.08338,-1.89622 20.77187,-8.0044 27.28353,-17.20411 6.51123,-9.19538 9.05252,-20.36491 7.15629,-31.44828 -1.85293,-10.82016 -7.6455,-20.27097 -16.36899,-26.74324 z M 318.27475,217.24692 C 299.12204,210.28544 279.5364,204.1422 260.05466,198.98171 226.624,190.13267 204.08579,186.98096 203.88232,186.95498 l -0.17751,-0.0216 c -35.61261,-3.33355 -67.49772,-5.02629 -94.77215,-5.02629 -4.60202,0 -9.126119,0.052 -13.451064,0.1472 -19.325875,0.43292 -35.881031,1.83128 -49.215197,4.16043 -9.567698,1.67109 -17.481613,3.80543 -23.516622,6.33373 -2.532626,1.065 -4.684276,2.18195 -6.424644,3.32921 -3.887689,-4.00025 -5.874826,-7.90526 -5.918119,-11.63276 -0.05628,-4.74056 3.233968,-7.90526 3.251286,-7.92258 14.165387,-12.8666 11.126236,-33.86358 10.663004,-36.56505 -0.645062,-7.03507 0.839879,-12.69344 4.415861,-16.81058 3.671224,-4.2297 8.896659,-6.17787 12.788677,-7.07403 l 4.511105,-0.69268 c 21.269729,-3.2513 44.033059,-4.90074 67.653583,-4.90074 88.44276,0 162.07896,22.93217 162.81104,23.16161 l 0.41128,0.10391 c 26.23931,5.24708 46.21934,22.59016 58.35863,36.22304 0.4286,0.48055 0.85287,0.9611 1.27281,1.44598 11.77087,13.55929 18.3821,25.99297 19.096,27.36968 l 0.013,0.0173 c 3.51971,7.13032 11.28642,21.98406 23.10967,44.1889 -19.09599,-9.3036 -39.42194,-17.88423 -60.48819,-25.54271 z m 77.34682,40.57396 c -6.31684,-11.80593 -11.18252,-20.9407 -15.31697,-28.74205 -8.77977,-16.55083 -14.72863,-27.97578 -17.68552,-33.9675 -0.23811,-0.47189 -5.93111,-11.68471 -16.97509,-25.18772 -1.39792,-1.71006 -2.90494,-3.47641 -4.47647,-5.2514 -12.90989,-14.51174 -34.22768,-33.00207 -62.52772,-38.72537 -2.39409,-0.73598 -20.75064,-6.26446 -48.56624,-11.71935 -27.3437,-5.35532 -69.7273,-11.74099 -116.3839,-11.74099 -20.776189,0 -40.941949,1.25981 -60.00808,3.74914 2.601895,-3.33786 6.42465,-7.784029 11.840571,-13.186964 11.792945,-11.736665 33.6731,-30.374196 70.939499,-52.479473 l 0.1342,-0.07793 0.35067,-0.255427 c 0.0996,-0.08226 10.15216,-8.169342 26.05792,-16.256428 14.52904,-7.385743 36.92871,-16.1871589 61.14235,-16.1871589 9.45513,0 18.63363,1.3334165 27.28308,3.9699449 l 0.37665,0.09092 0.15586,0.03463 c 0.45457,0.07793 10.18245,1.896223 27.3437,10.888127 12.18258,6.385681 31.91541,18.481675 56.74337,39.846646 l 38.82061,32.032306 0.48488,0.393965 h 0.0217 c 10.91409,8.636912 25.96308,21.629062 36.66072,35.140732 l 0.0472,0.0606 c 1.67543,2.11701 3.21233,4.20372 4.55873,6.19952 0.19915,0.29872 0.39396,0.59311 0.59311,0.89182 0.51086,0.77928 1.03037,1.59318 1.54123,2.43306 12.9272,20.96668 20.25234,48.52252 20.6463,50.03343 0.009,0.0259 0.013,0.0433 0.0172,0.0519 l 0.42384,1.38104 c 0.88794,2.87897 1.73171,5.84019 2.51574,8.81874 5.18215,19.68954 7.72776,40.36616 7.5719,61.45405 -0.11299,3.3816 -0.48487,12.51161 -1.43342,24.67254 -0.75761,9.79282 -1.72261,19.40381 -2.86598,28.56023 -2.98287,23.93223 -7.06105,44.15861 -12.1263,60.16826 -5.66269,-2.72311 -11.93148,-4.15177 -18.26954,-4.15177 -2.36811,0 -4.77085,0.20347 -7.15196,0.60999 -0.26019,0.0437 -0.52384,0.0909 -0.78793,0.13854 5.58477,-22.5815 4.68861,-46.37952 2.88763,-62.64461 -0.56713,-5.11676 -1.30744,-10.35563 -2.20793,-15.56808 -0.005,-0.0126 -0.005,-0.0299 -0.009,-0.0433 -0.0693,-0.59311 -0.35068,-2.6586 -1.07323,-5.83153 -1.51784,-6.69695 -4.71285,-17.27337 -11.29336,-29.60315 z m 25.38255,188.95987 c -1.91354,0.32902 -3.87903,0.49743 -5.83587,0.49743 -16.76295,0 -30.98895,-12.01374 -33.8203,-28.56413 -2.58457,-15.1438 5.30812,-30.30491 19.19644,-36.8681 1.14293,-0.53682 2.30707,-1.01305 3.46775,-1.41134 1.75769,-0.60221 3.57599,-1.06977 5.40727,-1.38104 1.93908,-0.32903 3.90068,-0.49743 5.83976,-0.49743 16.76338,0 30.98462,12.01373 33.81596,28.56412 3.19068,18.67649 -9.39885,36.46548 -28.07101,39.66049 z"
     id="path8"
     style="stroke-width:0.432927" />
</svg>
