<svg xmlns="http://www.w3.org/2000/svg" width="250" height="262.766" viewBox="0 0 457.795 481.172"><path fill="#fff" d="M421.299 448.488c-2.03.351-4.091.524-6.13.524-17.612 0-32.552-12.62-35.527-30.007-2.787-16.312 5.884-31.976 20.166-38.725a36 36 0 0 1 9.32-2.93 36.5 36.5 0 0 1 6.13-.525c17.608 0 32.548 12.619 35.523 30.006 3.355 19.616-9.87 38.302-29.482 41.657" style="stroke-width:.432927"/><path fill="#e60017" d="M386.037 310.596c-1.83 13.486-4.676 26.876-9.221 39.725-8.334 23.56-20.911 45.748-37.544 64.446-15.364 17.767-34.21 32.326-54.744 43.656-13.26 6.992-27.27 12.603-41.782 16.37-2.82.58-5.588 1.355-8.364 2.108-9.883 2.048-19.92 3.238-29.967 4.118-14.59.371-29.314.272-43.657-2.685-8.784-1.476-17.344-3.982-25.897-6.411-15.603-5.117-30.647-12.044-44.44-20.98-8.615-5.169-16.45-11.495-24.162-17.902-10.204-9.1-19.802-18.967-27.833-30.062-2.285-3.385-4.892-6.538-7.022-10.026-2.788-4.542-5.745-8.988-8.165-13.746-5.221-9.984-9.788-20.335-13.36-31.028-.917-2.928-1.722-5.889-2.74-8.776C3.412 325.545.806 311.333.13 296.986c-.11-8.971-.407-17.985.55-26.916.108-1.887.004-3.793.368-5.658.99-6.091 1.662-12.257 3.074-18.265 3.403-15.615 8.632-30.855 15.79-45.15q.068-.142.137-.281a202 202 0 0 1 3.373-6.568c4.86-2.039 12.195-4.312 23.144-6.225 13.335-2.33 29.764-3.707 48.956-4.135-1.005.957-2.005 1.922-3.018 2.87a102 102 0 0 0-1.567 1.59c-13.637 13.996-24.192 30.95-30.846 49.314-10.931 29.287-11.477 62.194-2.018 91.95 3.818 11.073 8.408 21.954 14.65 31.893 4.5 7.53 10.079 14.326 15.803 20.946 19.309 21.083 45.04 36.387 73.02 42.535 4.846 1.307 9.863 1.705 14.799 2.558 9.32 1.021 18.737 1.014 28.089.346 4.71-.164 9.338-1.194 13.979-1.939 6.295-.969 12.343-2.986 18.417-4.844 15.698-5.156 30.422-13.161 43.43-23.344 12.443-10.16 23.695-22.001 32.116-35.746 4.194-6.087 7.143-12.897 10.299-19.551 2.368-5.87 4.718-11.776 6.173-17.954 2.979-9.39 4.325-19.183 5.105-28.971.727-14.92.147-30.102-4.08-44.518-2.172-9.114-5.36-17.95-9.363-26.4q-1.351-2.851-2.827-5.645c20.335 7.39 42.544 16.572 65.134 27.845v-.005c-11.026-20.681-21.322-40.192-25.616-48.895-.065-.116-6.75-13.23-19.347-27.742.78.226 1.559.464 2.337.697 1.35.213 2.736.303 4.113.243 10.88 13.3 16.507 24.348 16.772 24.872 3.234 6.555 9.888 19.27 17.702 33.997 1.212 4.044 2.33 8.118 3.433 12.188q.982 4.657 1.828 9.342c1.458 8.065 2.597 16.187 3.23 24.352.74 11.615.027 23.273-1.233 34.823z" style="fill:#eb001a;fill-opacity:1;stroke-width:.432927"/><path fill="#e60017" d="M293.953 210.746c-.047.03-.1.056-.147.086q-2.293 1.468-4.59 2.944c-11.29 7.256-22.555 14.567-33.98 21.616.26 1.819 1.42 3.303 2.264 4.888 3.083 5.433 5.265 11.326 7.083 17.282 2.433 8.075 2.533 16.581 2.138 24.933-.917 8.238-3.116 16.316-6.264 23.98-3.931 8.74-8.85 17.044-14.724 24.625-4.698 5.446-9.21 11.135-14.807 15.716-4.922 4.675-10.251 8.926-16.018 12.511-9.044 6.096-18.694 11.411-29.001 15.057-.788.316-1.542.71-2.273 1.143 4.437.035 8.727-1.298 13.018-2.268 14.723-3.468 28.685-9.975 41.084-18.612 8.087-6.156 15.763-13.017 21.742-21.3 5-6.164 8.75-13.22 12.023-20.421 5.923-13.888 9.269-29 8.78-44.132 15.238.177 30.482.108 45.73.151-.074-4.385-1.07-8.687-2-12.948-2.923-12.144-7.261-24.036-13.257-35.007a113 113 0 0 0-3.35-5.753z" style="stroke-width:.432927"/><path fill="#e60017" d="M287.299 275.925c13.195 0 26.386-.03 39.582.016.17 5.975.118 11.958.05 17.942-.595 18.326-6.164 36.15-13.836 52.689-2.082-.569-3.743-2.003-5.534-3.121-4.928-3.376-10.011-6.513-14.945-9.878-1.957-1.138-3.732-2.706-5.922-3.37a43 43 0 0 0-.688.156c-2.718 4.675-5.234 9.504-8.563 13.795-2.065 2.883-4.427 5.53-6.678 8.272-4.307 5.343-9.463 9.903-14.562 14.47-2.992 2.593-6.26 4.865-9.572 7.03-23.715 16.073-53.533 22.766-81.85 18.578-6.056-1.2-12.088-2.588-18.046-4.22-9.572-3.229-19.014-7.039-27.753-12.153-.667-.388-1.257-.895-1.806-1.43 2.293.136 4.358 1.2 6.502 1.922 7.915 2.397 15.99 4.342 24.217 5.33 3.956.86 8.018.514 12 1.155 5.006.15 10.017.15 15.022-.036 2.79-.529 5.643-.28 8.45-.625 6.035-.943 12.009-2.273 17.952-3.69 6.823-2.088 13.724-4.096 20.122-7.3 8.65-3.795 16.86-8.597 24.228-14.53 4.752-3.485 8.955-7.641 12.92-11.985 6.61-6.953 11.876-15.07 16.38-23.513 7.455-13.993 11.502-29.71 12.33-45.503" style="stroke-width:.432927"/><path fill="#e60017" d="M284.747 345.77c1.33-1.91 2.387-4.022 3.97-5.75 6.969 4.176 13.74 8.685 20.646 12.961-1.03 2.703-2.712 5.099-4.193 7.564-3.976 5.296-7.74 10.761-12.284 15.596-16.582 18.481-38.256 32.433-62.096 39.474-9.385 2.997-19.18 4.457-28.963 5.352-6.207.15-12.42.166-18.626-.005-14.66-1.242-29.237-4.452-42.764-10.34-16.758-7.142-31.997-17.792-44.515-31.017-3.7-3.759-7.237-7.713-10.213-12.072-4.214-5.582-8.003-11.482-11.384-17.6-.683-1.352-1.543-2.667-1.755-4.189 1.542.735 2.282 2.371 3.473 3.52 3.525 3.552 6.678 7.465 10.31 10.918 7.533 7.057 15.479 13.75 24.295 19.164 4.826 2.637 9.499 5.566 14.475 7.927 10.245 4.789 20.919 8.83 32.049 10.99 8.23 1.58 16.586 2.755 24.988 2.548 29.3.232 58.248-11.13 80.43-30.117 3.194-2.839 6.389-5.69 9.236-8.885 4.69-5.027 9.246-10.21 12.92-16.04z" style="stroke-width:.432927"/><path fill="#fff" d="M382.816 246.717v.005c-22.59-11.274-44.8-20.456-65.134-27.846a683 683 0 0 0-58.07-18.216c-33.426-8.85-55.752-11.958-55.977-11.988l-.091-.013c-41.77-3.908-78.217-5.537-108.025-4.87-19.192.428-35.621 1.805-48.955 4.135-10.95 1.914-18.282 4.186-23.145 6.225-3.67 1.542-5.935 2.957-7.281 3.983-4.9-4.68-7.412-9.338-7.464-13.862-.064-5.59 3.78-9.19 3.818-9.226 13.699-12.442 10.43-33.223 10.11-35.058-.706-7.555.917-13.668 4.826-18.17 4.204-4.845 10.239-6.884 14.17-7.733l-.017.03 4.194-.64c21.369-3.269 44.22-4.922 67.914-4.922 88.32 0 162.594 23.01 163.334 23.244l.226.056c26.71 5.338 46.998 22.94 59.31 36.764q.656.735 1.29 1.468c12.6 14.512 19.283 27.626 19.348 27.742 4.296 8.7 14.592 28.212 25.618 48.893" style="stroke-width:.432927"/><path fill="#e60017" d="M451.686 261.55c-.118 3.454-.486 12.568-1.438 24.772a622 622 0 0 1-2.875 28.642c-2.554 20.483-6.562 43.362-12.823 62.42a40.3 40.3 0 0 0-19.291-4.887 41 41 0 0 0-10.33 1.333c6.238-22.885 5.472-47.45 3.554-64.77a258 258 0 0 0-3.035-20.11c-1.862-9.723-6.277-16.231-6.303-16.327-7.455-13.883-13.085-28.978-20.37-42.732-7.815-14.73-14.47-27.444-17.703-33.998-.264-.524-5.892-11.572-16.772-24.872a163 163 0 0 0-4.428-5.195c-12.75-14.338-33.79-32.59-61.663-38.197-1.614-.502-20.11-6.14-48.47-11.698-27.265-5.342-69.532-11.71-116.051-11.71-22.183 0-43.64 1.437-63.857 4.282 2.45-3.473 6.953-9.19 14.469-16.677 11.86-11.81 33.859-30.547 71.29-52.752l.134-.078.126-.1c.1-.081 10.377-8.33 26.37-16.46 14.693-7.468 37.36-16.373 61.925-16.373 9.62 0 18.97 1.36 27.79 4.044l.28.069c.1.012 10.093 1.74 27.895 11.07 16.446 8.62 43.662 24.285 77.257 56.56l.72-.073.146.542c.649.428 65.97 42.654 70.855 75.401v2.058c2.356-.597 7.836 16.776 14.966 43.886 4.086 15.515 7.823 36.711 7.632 61.93"/><path d="M440.387 379.067c9.39-28.72 13.8-65.602 15.854-91.664a255 255 0 0 0 1.554-27.262 251 251 0 0 0-.238-11.477c-.767-17.204-3.334-34.227-7.637-50.591a232 232 0 0 0-3.485-11.932 329 329 0 0 0-3.226-9.672c-.875-2.904-8.537-27.538-21.66-46.154-1.78-2.784-3-4.455-3.454-5.06l-.211-.265c-6.04-7.59-13.954-15.746-23.517-24.244-5.373-4.77-11.23-9.61-17.412-14.386a448 448 0 0 0-11.585-8.651l-11.376-9.6a594 594 0 0 0-11.093-9.867c-26.335-22.893-47.32-35.764-60.29-42.535-17.053-8.897-27.054-11.079-29.136-11.464C244.15 1.429 234.282 0 224.148 0c-25.807 0-49.466 9.29-64.77 17.083-15.464 7.87-25.6 15.72-27.11 16.915-38.046 22.59-60.432 41.73-72.52 53.808-9.84 9.836-14.702 16.759-16.65 19.846-4.468.606-13.75 2.727-20.222 10.156-5.07 5.827-7.191 13.512-6.3 22.837l.044.32c.134.78 3.204 19.231-8.187 29.578-.242.212-5.875 5.377-5.818 13.698.043 6.754 3.714 13.39 10.914 19.72l3.22 3.082 2.425-3.545c.182-.17.723-.645 1.793-1.317 3.164-1.982 11.07-5.736 28.465-8.597 11.472-1.888 25.45-3.105 41.56-3.607a578 578 0 0 1 18.136-.277c26.885 0 58.432 1.68 93.763 4.983 2.524.364 23.785 3.52 55.25 11.858a675 675 0 0 1 61.766 19.603c21.988 8.165 43.116 17.35 62.796 27.298.763.44 2.837 1.95 5.068 6.283.376.73.792 1.544 1.193 2.33.71 1.381 1.36 2.65 1.61 3.143l.052.104c.035.074.057.113.057.113 2.38 5.082 6.628 14.88 8.697 24.197v.009c.26 1.32.51 2.67.754 4.004l.012.087q.008.066.022.134l.069.377a243 243 0 0 1 2.23 15.585c1.87 16.95 2.684 41.8-3.94 64.403-8.408 3.628-15.5 10.009-20.032 18.044a42.18 42.18 0 0 0-4.827 27.768c3.476 20.309 20.928 35.05 41.5 35.05 2.394 0 4.797-.204 7.148-.61 11.083-1.897 20.772-8.005 27.283-17.205 6.512-9.195 9.053-20.364 7.157-31.448-1.853-10.82-7.646-20.27-16.37-26.743zm-122.112-161.82a683 683 0 0 0-58.22-18.265c-33.43-8.85-55.97-12.001-56.172-12.027l-.178-.022c-35.612-3.333-67.497-5.026-94.772-5.026-4.602 0-9.126.052-13.451.147-19.326.433-35.881 1.832-49.215 4.16-9.568 1.672-17.482 3.806-23.517 6.334-2.532 1.065-4.684 2.182-6.424 3.33-3.888-4-5.875-7.906-5.92-11.633-.055-4.74 3.235-7.905 3.253-7.923 14.165-12.866 11.126-33.863 10.663-36.565-.645-7.035.84-12.693 4.416-16.81 3.67-4.23 8.896-6.178 12.788-7.074l4.51-.693c21.27-3.251 44.034-4.9 67.655-4.9 88.443 0 162.079 22.931 162.81 23.16l.412.105c26.24 5.247 46.22 22.59 58.359 36.223q.643.718 1.273 1.446c11.77 13.56 18.382 25.993 19.096 27.37l.013.017c3.52 7.13 11.286 21.984 23.11 44.189-19.097-9.304-39.423-17.885-60.49-25.543m77.348 40.574a8203 8203 0 0 1-15.317-28.742c-8.78-16.551-14.73-27.976-17.686-33.968-.238-.472-5.93-11.684-16.975-25.187a176 176 0 0 0-4.476-5.252c-12.91-14.512-34.228-33.002-62.528-38.725-2.394-.736-20.75-6.265-48.566-11.72-27.344-5.355-69.727-11.74-116.384-11.74-20.776 0-40.942 1.26-60.008 3.749 2.602-3.338 6.425-7.784 11.84-13.187 11.794-11.737 33.674-30.375 70.94-52.48l.134-.078.35-.255c.1-.082 10.153-8.17 26.059-16.257 14.529-7.385 36.929-16.187 61.142-16.187 9.455 0 18.634 1.334 27.283 3.97l.377.091.156.035c.454.078 10.182 1.896 27.343 10.888 12.183 6.386 31.916 18.482 56.744 39.847l38.82 32.032.485.394h.022c10.914 8.637 25.963 21.629 36.66 35.14l.048.061a102 102 0 0 1 4.559 6.2l.593.891c.51.78 1.03 1.594 1.54 2.434 12.928 20.966 20.253 48.522 20.647 50.033.01.026.013.043.018.052l.423 1.38a221 221 0 0 1 2.516 8.82c5.182 19.69 7.728 40.366 7.572 61.454-.113 3.381-.485 12.511-1.433 24.672a614 614 0 0 1-2.866 28.56c-2.983 23.933-7.061 44.16-12.127 60.169a42.24 42.24 0 0 0-25.421-3.542q-.391.066-.788.138c5.585-22.581 4.689-46.379 2.888-62.644a260 260 0 0 0-2.208-15.568c-.005-.013-.005-.03-.01-.044-.07-.593-.35-2.658-1.073-5.831-1.517-6.697-4.712-17.273-11.293-29.603m25.383 188.96a34.6 34.6 0 0 1-5.836.497c-16.763 0-30.99-12.014-33.82-28.564-2.585-15.144 5.307-30.305 19.196-36.868a35 35 0 0 1 3.468-1.411 34.7 34.7 0 0 1 11.247-1.879c16.763 0 30.984 12.014 33.816 28.564 3.19 18.677-9.4 36.466-28.071 39.66" style="stroke-width:.432927"/></svg>